<svg width="26" height="23" viewBox="0 0 26 23" fill="none" xmlns="http://www.w3.org/2000/svg">
<path d="M24.7405 0.455057C24.482 0.231866 24.1673 0.0836446 23.8307 0.0264437C23.494 -0.0307573 23.1481 0.00524222 22.8304 0.130544L1.19008 8.63212C0.812887 8.7803 0.493815 9.04664 0.280611 9.39128C0.0674068 9.73593 -0.0284661 10.1403 0.00733804 10.544C0.0431422 10.9477 0.208698 11.3289 0.479234 11.6307C0.749769 11.9324 1.11074 12.1384 1.50813 12.2179L7.00492 13.3173V20.183C7.0046 20.5542 7.11445 20.9171 7.32054 21.2259C7.52663 21.5346 7.8197 21.7752 8.16264 21.9173C8.50558 22.0593 8.88296 22.0964 9.24699 22.0238C9.61102 21.9512 9.94532 21.7723 10.2076 21.5096L13.2496 18.4676L17.8666 22.5306C18.2065 22.8325 18.6452 22.9994 19.0998 23C19.2974 22.9998 19.4938 22.9686 19.6818 22.9077C19.9918 22.8094 20.2707 22.6314 20.4905 22.3917C20.7103 22.1519 20.8635 21.8587 20.9346 21.5413L25.345 2.29587C25.4218 1.96308 25.4061 1.61563 25.2995 1.29114C25.1929 0.966657 24.9996 0.677521 24.7405 0.455057ZM7.72557 11.5482L1.87627 10.3783L18.2547 3.94389L7.72557 11.5482ZM8.881 20.1821V14.6233L11.8381 17.2256L8.881 20.1821ZM19.1059 21.1222L9.44501 12.6205L23.3568 2.57327L19.1059 21.1222Z" fill="black"/>
</svg>
