<svg width="61" height="61" viewBox="0 0 61 61" fill="none" xmlns="http://www.w3.org/2000/svg">
<path fill-rule="evenodd" clip-rule="evenodd" d="M30.5 61C47.3447 61 61 47.3447 61 30.5C61 13.6553 47.3447 0 30.5 0C13.6553 0 0 13.6553 0 30.5C0 47.3447 13.6553 61 30.5 61ZM48.5098 24.1804C49.6986 22.6562 49.4268 20.4569 47.9026 19.268C46.3784 18.0792 44.1791 18.351 42.9902 19.8752L28.7418 38.1424L18.396 29.1315C16.9383 27.862 14.7275 28.0145 13.4579 29.4721C12.1884 30.9297 12.3409 33.1406 13.7985 34.4101L26.9304 45.8476C27.6552 46.4789 28.6077 46.7843 29.5644 46.6922C30.5211 46.6002 31.3978 46.1188 31.9889 45.3609L48.5098 24.1804Z" fill="#716865"/>
</svg>
