<svg width="28" height="27" viewBox="0 0 28 27" fill="none" xmlns="http://www.w3.org/2000/svg">
<path fill-rule="evenodd" clip-rule="evenodd" d="M23.3491 3.92421C20.8229 1.39501 17.4636 0.0014904 13.8851 0C6.51065 0 0.507339 6.00182 0.504358 13.3793C0.504358 15.7371 1.11989 18.0383 2.28985 20.0682L0.392578 27L7.48537 25.1385C9.44077 26.2041 11.6406 26.766 13.8792 26.7675H13.8851C21.2581 26.7675 27.2614 20.7657 27.2644 13.3882C27.2644 9.81425 25.8754 6.45341 23.3491 3.92421ZM13.8851 24.5096H13.8807C11.885 24.5081 9.92813 23.973 8.22013 22.958L7.81475 22.7166L3.60587 23.821L4.72814 19.7179L4.46434 19.2976C3.35101 17.527 2.7638 15.4807 2.7638 13.3793C2.76678 7.24779 7.75513 2.25944 13.8896 2.25944C16.86 2.26093 19.6515 3.41897 21.7514 5.52042C23.8499 7.62337 25.0065 10.4164 25.005 13.3882C25.002 19.5197 20.0136 24.5096 13.8851 24.5096ZM19.9853 16.1797C19.65 16.0113 18.0076 15.2035 17.7005 15.0917C17.395 14.98 17.1729 14.9248 16.9494 15.2587C16.7258 15.5925 16.0849 16.3452 15.8897 16.5687C15.6945 16.7923 15.4992 16.8191 15.1654 16.6522C14.8315 16.4853 13.754 16.132 12.4767 14.9934C11.4826 14.1066 10.8119 13.0126 10.6167 12.6773C10.4214 12.342 10.5958 12.1616 10.7642 11.9947C10.9148 11.8457 11.0981 11.6042 11.265 11.409C11.4319 11.2137 11.4871 11.0751 11.5989 10.8516C11.7106 10.628 11.6555 10.4328 11.5705 10.2658C11.4871 10.0974 10.8179 8.45203 10.5392 7.78284C10.2694 7.13452 9.9937 7.22097 9.78803 7.21202C9.59428 7.20308 9.37072 7.2001 9.14865 7.2001C8.92509 7.2001 8.56292 7.28356 8.2559 7.61741C7.94888 7.95275 7.08594 8.76054 7.08594 10.4059C7.08594 12.0513 8.28422 13.6416 8.45114 13.8651C8.61807 14.0887 10.809 17.4645 14.1623 18.9131C14.9612 19.2574 15.5842 19.4631 16.0686 19.6181C16.8689 19.8729 17.5977 19.8357 18.1745 19.7507C18.8168 19.6553 20.1522 18.9429 20.4309 18.162C20.7096 17.381 20.7096 16.7118 20.6262 16.5717C20.5427 16.4316 20.3177 16.3467 19.9853 16.1797Z" fill="black"/>
</svg>
