<svg width="114" height="59" viewBox="0 0 114 59" fill="none" xmlns="http://www.w3.org/2000/svg">
<rect width="114" height="58.1355" transform="translate(0 0.824219)" fill="#322D2B"/>
<path d="M32.356 56.0051C15.9418 56.0051 3.54263 47.0304 3.54263 31.2067C3.54263 15.442 15.9418 6.40827 32.356 6.40827C48.6521 6.40827 61.1104 15.442 61.1104 31.2067C61.1104 47.0304 48.6521 56.0051 32.356 56.0051ZM32.356 54.588C43.161 54.588 48.0026 43.6649 48.0026 31.2067C48.0026 18.8075 43.161 7.82533 32.356 7.82533C21.4329 7.82533 16.6504 18.8075 16.6504 31.2067C16.6504 43.6649 21.4329 54.588 32.356 54.588ZM69.0052 54.8242H66.3482C66.8796 50.5731 67.0567 47.739 67.0567 41.6574V20.7559C67.0567 14.6744 66.8796 11.8403 66.3482 7.58915H81.1092L104.077 51.813L104.491 51.872V20.7559C104.491 14.6744 104.254 11.8403 103.782 7.58915H106.439C105.908 11.8403 105.73 14.6744 105.73 20.7559V41.6574C105.73 47.739 105.908 50.5731 106.439 54.8242H91.678L68.71 10.6004L68.2966 10.5413V41.6574C68.2966 47.739 68.4738 50.5731 69.0052 54.8242Z" fill="white"/>
<rect width="114" height="12.2629" transform="translate(0 23.7607)" fill="#322D2B"/>
<path d="M24.225 31.4335C24.0015 31.4335 23.7958 31.3967 23.6078 31.3231C23.4197 31.2495 23.2562 31.1473 23.1172 31.0165C22.9783 30.883 22.8706 30.7277 22.7943 30.5505C22.718 30.3707 22.6799 30.1745 22.6799 29.9619C22.6799 29.7493 22.718 29.5545 22.7943 29.3774C22.8706 29.1975 22.9783 29.0422 23.1172 28.9114C23.2562 28.7778 23.4197 28.6743 23.6078 28.6007C23.7958 28.5271 24.0002 28.4903 24.2209 28.4903C24.4444 28.4903 24.6487 28.5271 24.834 28.6007C25.0221 28.6743 25.1856 28.7778 25.3246 28.9114C25.4635 29.0422 25.5712 29.1975 25.6475 29.3774C25.7238 29.5545 25.7619 29.7493 25.7619 29.9619C25.7619 30.1745 25.7238 30.3707 25.6475 30.5505C25.5712 30.7304 25.4635 30.8857 25.3246 31.0165C25.1856 31.1473 25.0221 31.2495 24.834 31.3231C24.6487 31.3967 24.4457 31.4335 24.225 31.4335ZM24.2209 30.9675C24.3653 30.9675 24.4989 30.9429 24.6215 30.8939C24.7441 30.8448 24.8504 30.7753 24.9403 30.6854C25.0303 30.5928 25.0997 30.4865 25.1488 30.3666C25.2006 30.2439 25.2265 30.1091 25.2265 29.9619C25.2265 29.8147 25.2006 29.6812 25.1488 29.5613C25.0997 29.4387 25.0303 29.3324 24.9403 29.2425C24.8504 29.1498 24.7441 29.079 24.6215 29.0299C24.4989 28.9809 24.3653 28.9563 24.2209 28.9563C24.0765 28.9563 23.9429 28.9809 23.8203 29.0299C23.7004 29.079 23.5941 29.1498 23.5015 29.2425C23.4115 29.3324 23.3407 29.4387 23.2889 29.5613C23.2399 29.6812 23.2153 29.8147 23.2153 29.9619C23.2153 30.1063 23.2399 30.2399 23.2889 30.3625C23.3407 30.4851 23.4115 30.5928 23.5015 30.6854C23.5914 30.7753 23.6977 30.8448 23.8203 30.8939C23.9429 30.9429 24.0765 30.9675 24.2209 30.9675ZM29.3501 31.3926V28.5312H29.8815V30.9429H31.3775V31.3926H29.3501ZM36.1067 31.4335C35.8832 31.4335 35.6775 31.398 35.4895 31.3272C35.3042 31.2536 35.142 31.1514 35.003 31.0206C34.8641 30.8871 34.7564 30.7304 34.6801 30.5505C34.6038 30.3707 34.5657 30.1745 34.5657 29.9619C34.5657 29.7493 34.6038 29.5531 34.6801 29.3733C34.7564 29.1934 34.8641 29.0381 35.003 28.9073C35.1447 28.7738 35.3096 28.6716 35.4976 28.6007C35.6857 28.5271 35.8914 28.4903 36.1149 28.4903C36.3574 28.4903 36.5754 28.5299 36.7689 28.6089C36.9651 28.6879 37.13 28.8037 37.2635 28.9563L36.9283 29.2834C36.8166 29.1716 36.6953 29.0899 36.5645 29.0381C36.4364 28.9836 36.2947 28.9563 36.1394 28.9563C35.9895 28.9563 35.8505 28.9809 35.7225 29.0299C35.5944 29.079 35.484 29.1485 35.3914 29.2384C35.2987 29.3283 35.2265 29.4346 35.1747 29.5572C35.1257 29.6799 35.1011 29.8147 35.1011 29.9619C35.1011 30.1063 35.1257 30.2399 35.1747 30.3625C35.2265 30.4851 35.2987 30.5928 35.3914 30.6854C35.484 30.7753 35.593 30.8448 35.7184 30.8939C35.8437 30.9429 35.9827 30.9675 36.1353 30.9675C36.277 30.9675 36.4133 30.9457 36.5441 30.9021C36.6776 30.8557 36.8043 30.7794 36.9242 30.6732L37.2267 31.0697C37.0768 31.1896 36.9024 31.2808 36.7035 31.3435C36.5073 31.4035 36.3084 31.4335 36.1067 31.4335ZM36.7239 31.0002V29.9292H37.2267V31.0697L36.7239 31.0002ZM40.5478 31.3926L41.8354 28.5312H42.3586L43.6503 31.3926H43.0944L41.9866 28.8133H42.1992L41.0955 31.3926H40.5478ZM41.1405 30.7304L41.2835 30.3134H42.8287L42.9717 30.7304H41.1405ZM51.1936 31.3926V28.5312H51.631L53.4255 30.7345H53.2088V28.5312H53.7361V31.3926H53.2987L51.5043 29.1893H51.7209V31.3926H51.1936ZM57.5277 31.3926V28.5312H58.0591V31.3926H57.5277ZM62.3321 30.7181L62.3035 30.0886L63.8036 28.5312H64.4004L63.1537 29.8556L62.8594 30.1785L62.3321 30.7181ZM61.8579 31.3926V28.5312H62.3893V31.3926H61.8579ZM63.8527 31.3926L62.7572 30.0886L63.1087 29.7003L64.474 31.3926H63.8527ZM67.8607 31.3926V28.5312H68.3921V31.3926H67.8607ZM72.7713 31.3926V28.9809H71.823V28.5312H74.2511V28.9809H73.3027V31.3926H72.7713ZM77.6747 31.3926V28.5312H78.2061V31.3926H77.6747ZM82.0049 31.3926V28.5312H82.4423L84.2368 30.7345H84.0201V28.5312H84.5474V31.3926H84.11L82.3156 29.1893H82.5322V31.3926H82.0049ZM87.9343 31.3926L89.2219 28.5312H89.7452L91.0369 31.3926H90.4809L89.3732 28.8133H89.5857L88.4821 31.3926H87.9343ZM88.527 30.7304L88.6701 30.3134H90.2152L90.3583 30.7304H88.527Z" fill="white"/>
</svg>
