<svg width="76" height="37" viewBox="0 0 76 37" fill="none" xmlns="http://www.w3.org/2000/svg">
<path d="M21.5575 36.6964C9.60677 36.6964 0.579283 30.1622 0.579283 18.6414C0.579283 7.16363 9.60677 0.586456 21.5575 0.586456C33.4222 0.586456 42.4926 7.16363 42.4926 18.6414C42.4926 30.1622 33.4222 36.6964 21.5575 36.6964ZM21.5575 35.6647C29.4243 35.6647 32.9493 27.7119 32.9493 18.6414C32.9493 9.61395 29.4243 1.61817 21.5575 1.61817C13.6047 1.61817 10.1226 9.61395 10.1226 18.6414C10.1226 27.7119 13.6047 35.6647 21.5575 35.6647ZM48.2406 35.8367H46.3061C46.693 32.7415 46.822 30.6781 46.822 26.2503V11.0326C46.822 6.60478 46.693 4.54136 46.3061 1.44622H57.0531L73.7755 33.6443L74.0764 33.6873V11.0326C74.0764 6.60478 73.9045 4.54136 73.5606 1.44622H75.495C75.1081 4.54136 74.9792 6.60478 74.9792 11.0326V26.2503C74.9792 30.6781 75.1081 32.7415 75.495 35.8367H64.748L48.0257 3.63861L47.7247 3.59562V26.2503C47.7247 30.6781 47.8537 32.7415 48.2406 35.8367Z" fill="#594F4C"/>
</svg>
